<mxfile host="app.diagrams.net" agent="Mozilla/5.0 (X11; Linux x86_64; rv:109.0) Gecko/20100101 Firefox/115.0" version="24.7.14">
  <diagram name="Page-1" id="e7e014a7-5840-1c2e-5031-d8a46d1fe8dd">
    <mxGraphModel dx="1195" dy="638" grid="1" gridSize="10" guides="1" tooltips="1" connect="1" arrows="1" fold="1" page="1" pageScale="1" pageWidth="1169" pageHeight="826" background="none" math="0" shadow="0">
      <root>
        <mxCell id="0" />
        <mxCell id="1" parent="0" />
        <mxCell id="2" value="Cliente" style="swimlane;whiteSpace=wrap" parent="1" vertex="1">
          <mxGeometry x="164.5" y="128" width="280" height="570" as="geometry" />
        </mxCell>
        <mxCell id="5" value="" style="ellipse;shape=startState;fillColor=#000000;strokeColor=#ff0000;" parent="2" vertex="1">
          <mxGeometry x="65.5" y="40" width="30" height="30" as="geometry" />
        </mxCell>
        <mxCell id="6" value="" style="edgeStyle=elbowEdgeStyle;elbow=vertical;verticalAlign=bottom;endArrow=open;endSize=8;strokeColor=#FF0000;endFill=1;rounded=0" parent="2" source="5" target="7" edge="1">
          <mxGeometry x="100" y="40" as="geometry">
            <mxPoint x="80.5" y="110" as="targetPoint" />
          </mxGeometry>
        </mxCell>
        <mxCell id="7" value="Prencher &#xa;Agendamento" style="" parent="2" vertex="1">
          <mxGeometry x="25.5" y="110" width="110" height="50" as="geometry" />
        </mxCell>
        <mxCell id="1Jmq5DldogG7wvRiKXgC-46" style="edgeStyle=orthogonalEdgeStyle;rounded=0;orthogonalLoop=1;jettySize=auto;html=1;exitX=1;exitY=0.5;exitDx=0;exitDy=0;strokeColor=#FF0000;entryX=0;entryY=0.5;entryDx=0;entryDy=0;" edge="1" parent="2" source="8" target="1Jmq5DldogG7wvRiKXgC-41">
          <mxGeometry relative="1" as="geometry">
            <mxPoint x="151.0689655172414" y="245.0344827586207" as="targetPoint" />
          </mxGeometry>
        </mxCell>
        <mxCell id="8" value="Pagamento&#xa;Deslocação" style="" parent="2" vertex="1">
          <mxGeometry x="25.5" y="185" width="110" height="50" as="geometry" />
        </mxCell>
        <mxCell id="9" value="" style="endArrow=open;strokeColor=#FF0000;endFill=1;rounded=0" parent="2" source="7" target="8" edge="1">
          <mxGeometry relative="1" as="geometry" />
        </mxCell>
        <mxCell id="1Jmq5DldogG7wvRiKXgC-41" value="Pago" style="rhombus;fillColor=#ffffc0;strokeColor=#ff0000;" vertex="1" parent="2">
          <mxGeometry x="175.5" y="190" width="80" height="40" as="geometry" />
        </mxCell>
        <mxCell id="1Jmq5DldogG7wvRiKXgC-48" value="sim" style="text;html=1;align=center;verticalAlign=middle;resizable=0;points=[];autosize=1;strokeColor=none;fillColor=none;" vertex="1" parent="2">
          <mxGeometry x="175.5" y="160" width="40" height="30" as="geometry" />
        </mxCell>
        <mxCell id="1Jmq5DldogG7wvRiKXgC-54" style="edgeStyle=orthogonalEdgeStyle;rounded=0;orthogonalLoop=1;jettySize=auto;html=1;exitX=0.5;exitY=1;exitDx=0;exitDy=0;strokeColor=#FF0000;" edge="1" parent="2" source="1Jmq5DldogG7wvRiKXgC-49" target="1Jmq5DldogG7wvRiKXgC-50">
          <mxGeometry relative="1" as="geometry" />
        </mxCell>
        <mxCell id="1Jmq5DldogG7wvRiKXgC-49" value="Notificar&#xa;Erro" style="" vertex="1" parent="2">
          <mxGeometry x="25.5" y="282" width="110" height="50" as="geometry" />
        </mxCell>
        <mxCell id="1Jmq5DldogG7wvRiKXgC-56" style="edgeStyle=orthogonalEdgeStyle;rounded=0;orthogonalLoop=1;jettySize=auto;html=1;exitX=0.5;exitY=1;exitDx=0;exitDy=0;entryX=0.5;entryY=0;entryDx=0;entryDy=0;strokeColor=#FF0000;" edge="1" parent="2" source="1Jmq5DldogG7wvRiKXgC-50" target="1Jmq5DldogG7wvRiKXgC-55">
          <mxGeometry relative="1" as="geometry" />
        </mxCell>
        <mxCell id="1Jmq5DldogG7wvRiKXgC-50" value="Encerrar&#xa;Processo" style="" vertex="1" parent="2">
          <mxGeometry x="25.5" y="362" width="110" height="50" as="geometry" />
        </mxCell>
        <mxCell id="1Jmq5DldogG7wvRiKXgC-51" style="edgeStyle=orthogonalEdgeStyle;rounded=0;orthogonalLoop=1;jettySize=auto;html=1;exitX=0.5;exitY=1;exitDx=0;exitDy=0;entryX=1;entryY=0.626;entryDx=0;entryDy=0;entryPerimeter=0;strokeColor=#FF0000;" edge="1" parent="2" source="1Jmq5DldogG7wvRiKXgC-41" target="1Jmq5DldogG7wvRiKXgC-49">
          <mxGeometry relative="1" as="geometry" />
        </mxCell>
        <mxCell id="1Jmq5DldogG7wvRiKXgC-53" value="&lt;div&gt;&lt;br&gt;&lt;/div&gt;" style="edgeLabel;html=1;align=center;verticalAlign=middle;resizable=0;points=[];" vertex="1" connectable="0" parent="1Jmq5DldogG7wvRiKXgC-51">
          <mxGeometry x="0.2627" y="1" relative="1" as="geometry">
            <mxPoint as="offset" />
          </mxGeometry>
        </mxCell>
        <mxCell id="1Jmq5DldogG7wvRiKXgC-52" value="não" style="text;html=1;align=center;verticalAlign=middle;resizable=0;points=[];autosize=1;strokeColor=none;fillColor=none;" vertex="1" parent="2">
          <mxGeometry x="175.5" y="265" width="40" height="30" as="geometry" />
        </mxCell>
        <mxCell id="1Jmq5DldogG7wvRiKXgC-55" value="" style="ellipse;shape=endState;fillColor=#000000;strokeColor=#FF0000;" vertex="1" parent="2">
          <mxGeometry x="65.5" y="532" width="30" height="30" as="geometry" />
        </mxCell>
        <mxCell id="1Jmq5DldogG7wvRiKXgC-193" style="edgeStyle=orthogonalEdgeStyle;rounded=0;orthogonalLoop=1;jettySize=auto;html=1;exitX=0;exitY=0.5;exitDx=0;exitDy=0;entryX=1;entryY=0.5;entryDx=0;entryDy=0;" edge="1" parent="2" source="1Jmq5DldogG7wvRiKXgC-168" target="1Jmq5DldogG7wvRiKXgC-55">
          <mxGeometry relative="1" as="geometry" />
        </mxCell>
        <mxCell id="1Jmq5DldogG7wvRiKXgC-168" value="Autorizar" style="rhombus;fillColor=#ffffc0;strokeColor=#ff0000;" vertex="1" parent="2">
          <mxGeometry x="145.5" y="482" width="80" height="40" as="geometry" />
        </mxCell>
        <mxCell id="1Jmq5DldogG7wvRiKXgC-194" value="não" style="text;html=1;align=center;verticalAlign=middle;resizable=0;points=[];autosize=1;strokeColor=none;fillColor=none;" vertex="1" parent="2">
          <mxGeometry x="120" y="502" width="40" height="30" as="geometry" />
        </mxCell>
        <mxCell id="3" value="Sistema" style="swimlane;whiteSpace=wrap;startSize=23;" parent="1" vertex="1">
          <mxGeometry x="445" y="128" width="280" height="570" as="geometry" />
        </mxCell>
        <mxCell id="13" value="" style="ellipse;shape=startState;fillColor=#000000;strokeColor=#ff0000;" parent="3" vertex="1">
          <mxGeometry x="60" y="40" width="30" height="30" as="geometry" />
        </mxCell>
        <mxCell id="14" value="" style="edgeStyle=elbowEdgeStyle;elbow=horizontal;verticalAlign=bottom;endArrow=open;endSize=8;strokeColor=#FF0000;endFill=1;rounded=0" parent="3" source="13" target="15" edge="1">
          <mxGeometry x="40" y="20" as="geometry">
            <mxPoint x="55" y="90" as="targetPoint" />
          </mxGeometry>
        </mxCell>
        <mxCell id="1Jmq5DldogG7wvRiKXgC-122" style="edgeStyle=orthogonalEdgeStyle;rounded=0;orthogonalLoop=1;jettySize=auto;html=1;exitX=0.5;exitY=1;exitDx=0;exitDy=0;entryX=0;entryY=0.5;entryDx=0;entryDy=0;strokeColor=#FF0000;" edge="1" parent="3" source="15" target="21">
          <mxGeometry relative="1" as="geometry" />
        </mxCell>
        <mxCell id="15" value="Criação de Agenda" style="" parent="3" vertex="1">
          <mxGeometry x="20" y="142" width="110" height="50" as="geometry" />
        </mxCell>
        <mxCell id="1Jmq5DldogG7wvRiKXgC-123" style="edgeStyle=orthogonalEdgeStyle;rounded=0;orthogonalLoop=1;jettySize=auto;html=1;exitX=0;exitY=0.5;exitDx=0;exitDy=0;strokeColor=#FF0000;" edge="1" parent="3" source="18">
          <mxGeometry relative="1" as="geometry">
            <mxPoint x="65" y="194" as="targetPoint" />
          </mxGeometry>
        </mxCell>
        <mxCell id="18" value="Definir Pendente" style="" parent="3" vertex="1">
          <mxGeometry x="115" y="285" width="110" height="50" as="geometry" />
        </mxCell>
        <mxCell id="19" value="" style="endArrow=open;strokeColor=#FF0000;endFill=1;rounded=0;exitX=0.5;exitY=1;exitDx=0;exitDy=0;" parent="3" source="21" target="18" edge="1">
          <mxGeometry relative="1" as="geometry">
            <mxPoint x="75" y="270.0000000000001" as="sourcePoint" />
          </mxGeometry>
        </mxCell>
        <mxCell id="21" value="Confirmado" style="rhombus;fillColor=#ffffc0;strokeColor=#ff0000;" parent="3" vertex="1">
          <mxGeometry x="130" y="207" width="80" height="40" as="geometry" />
        </mxCell>
        <mxCell id="26" value="" style="edgeStyle=elbowEdgeStyle;elbow=horizontal;verticalAlign=bottom;endArrow=open;endSize=8;strokeColor=#FF0000;endFill=1;rounded=0" parent="3" target="15" edge="1">
          <mxGeometry x="130" y="90" as="geometry">
            <mxPoint x="230" y="140" as="targetPoint" />
            <mxPoint x="147.5" y="167.0999999999999" as="sourcePoint" />
          </mxGeometry>
        </mxCell>
        <mxCell id="1Jmq5DldogG7wvRiKXgC-117" value="" style="edgeStyle=orthogonalEdgeStyle;rounded=0;orthogonalLoop=1;jettySize=auto;html=1;strokeColor=#FF0000;" edge="1" parent="3" source="1Jmq5DldogG7wvRiKXgC-73" target="15">
          <mxGeometry relative="1" as="geometry" />
        </mxCell>
        <mxCell id="1Jmq5DldogG7wvRiKXgC-73" value="Definir Confirmado" style="" vertex="1" parent="3">
          <mxGeometry x="155" y="142" width="110" height="50" as="geometry" />
        </mxCell>
        <mxCell id="1Jmq5DldogG7wvRiKXgC-181" style="edgeStyle=orthogonalEdgeStyle;rounded=0;orthogonalLoop=1;jettySize=auto;html=1;exitX=0.75;exitY=1;exitDx=0;exitDy=0;entryX=0;entryY=0.5;entryDx=0;entryDy=0;strokeColor=#FF0000;" edge="1" parent="3" source="1Jmq5DldogG7wvRiKXgC-134" target="1Jmq5DldogG7wvRiKXgC-180">
          <mxGeometry relative="1" as="geometry" />
        </mxCell>
        <mxCell id="1Jmq5DldogG7wvRiKXgC-134" value="Criação Reparação" style="" vertex="1" parent="3">
          <mxGeometry x="10" y="372" width="105" height="52" as="geometry" />
        </mxCell>
        <mxCell id="1Jmq5DldogG7wvRiKXgC-167" style="edgeStyle=orthogonalEdgeStyle;rounded=0;orthogonalLoop=1;jettySize=auto;html=1;exitX=0;exitY=0.5;exitDx=0;exitDy=0;entryX=1;entryY=0.5;entryDx=0;entryDy=0;strokeColor=#FF0000;" edge="1" parent="3" source="1Jmq5DldogG7wvRiKXgC-135" target="1Jmq5DldogG7wvRiKXgC-134">
          <mxGeometry relative="1" as="geometry" />
        </mxCell>
        <mxCell id="1Jmq5DldogG7wvRiKXgC-135" value="Definir Orçamento" style="" vertex="1" parent="3">
          <mxGeometry x="140" y="372" width="100" height="52" as="geometry" />
        </mxCell>
        <mxCell id="1Jmq5DldogG7wvRiKXgC-174" style="edgeStyle=orthogonalEdgeStyle;rounded=0;orthogonalLoop=1;jettySize=auto;html=1;exitX=0.5;exitY=0;exitDx=0;exitDy=0;strokeColor=#FF0000;" edge="1" parent="3" source="1Jmq5DldogG7wvRiKXgC-171">
          <mxGeometry relative="1" as="geometry">
            <mxPoint x="60" y="422" as="targetPoint" />
          </mxGeometry>
        </mxCell>
        <mxCell id="1Jmq5DldogG7wvRiKXgC-171" value="Definir Autorizado" style="" vertex="1" parent="3">
          <mxGeometry x="10" y="476" width="100" height="52" as="geometry" />
        </mxCell>
        <mxCell id="1Jmq5DldogG7wvRiKXgC-180" value="Autorizado" style="rhombus;fillColor=#ffffc0;strokeColor=#ff0000;" vertex="1" parent="3">
          <mxGeometry x="145" y="436" width="80" height="40" as="geometry" />
        </mxCell>
        <mxCell id="1Jmq5DldogG7wvRiKXgC-191" value="nao" style="text;html=1;align=center;verticalAlign=middle;resizable=0;points=[];autosize=1;strokeColor=none;fillColor=none;" vertex="1" parent="3">
          <mxGeometry x="185" y="462" width="40" height="30" as="geometry" />
        </mxCell>
        <mxCell id="4" value="Técnico" style="swimlane;whiteSpace=wrap" parent="1" vertex="1">
          <mxGeometry x="724.5" y="127" width="335.5" height="572" as="geometry" />
        </mxCell>
        <mxCell id="38" value="" style="ellipse;shape=endState;fillColor=#000000;strokeColor=#ff0000" parent="4" vertex="1">
          <mxGeometry x="130" y="523" width="30" height="30" as="geometry" />
        </mxCell>
        <mxCell id="1Jmq5DldogG7wvRiKXgC-65" style="edgeStyle=orthogonalEdgeStyle;rounded=0;orthogonalLoop=1;jettySize=auto;html=1;exitX=0.5;exitY=1;exitDx=0;exitDy=0;entryX=0.5;entryY=0;entryDx=0;entryDy=0;strokeColor=#FF0000;" edge="1" parent="4" source="1Jmq5DldogG7wvRiKXgC-59" target="1Jmq5DldogG7wvRiKXgC-63">
          <mxGeometry relative="1" as="geometry" />
        </mxCell>
        <mxCell id="1Jmq5DldogG7wvRiKXgC-59" value="Visita" style="" vertex="1" parent="4">
          <mxGeometry x="90" y="203" width="110" height="50" as="geometry" />
        </mxCell>
        <mxCell id="1Jmq5DldogG7wvRiKXgC-74" style="edgeStyle=orthogonalEdgeStyle;rounded=0;orthogonalLoop=1;jettySize=auto;html=1;exitX=0.5;exitY=1;exitDx=0;exitDy=0;entryX=0.5;entryY=0;entryDx=0;entryDy=0;strokeColor=#FF0000;" edge="1" parent="4" source="1Jmq5DldogG7wvRiKXgC-60" target="1Jmq5DldogG7wvRiKXgC-67">
          <mxGeometry relative="1" as="geometry" />
        </mxCell>
        <mxCell id="1Jmq5DldogG7wvRiKXgC-60" value="" style="ellipse;shape=startState;fillColor=#000000;strokeColor=#ff0000;" vertex="1" parent="4">
          <mxGeometry x="125" y="32" width="30" height="30" as="geometry" />
        </mxCell>
        <mxCell id="1Jmq5DldogG7wvRiKXgC-63" value="Faz Diagnóstico" style="" vertex="1" parent="4">
          <mxGeometry x="90" y="282" width="110" height="50" as="geometry" />
        </mxCell>
        <mxCell id="1Jmq5DldogG7wvRiKXgC-70" style="edgeStyle=orthogonalEdgeStyle;rounded=0;orthogonalLoop=1;jettySize=auto;html=1;exitX=0.5;exitY=1;exitDx=0;exitDy=0;entryX=0.5;entryY=0;entryDx=0;entryDy=0;strokeColor=#FF0000;" edge="1" parent="4" source="1Jmq5DldogG7wvRiKXgC-67" target="1Jmq5DldogG7wvRiKXgC-69">
          <mxGeometry relative="1" as="geometry" />
        </mxCell>
        <mxCell id="1Jmq5DldogG7wvRiKXgC-67" value="Gerir Agendas" style="" vertex="1" parent="4">
          <mxGeometry x="85" y="82" width="110" height="50" as="geometry" />
        </mxCell>
        <mxCell id="1Jmq5DldogG7wvRiKXgC-69" value="Confirmar" style="rhombus;fillColor=#ffffc0;strokeColor=#ff0000;" vertex="1" parent="4">
          <mxGeometry x="100" y="153" width="80" height="40" as="geometry" />
        </mxCell>
        <mxCell id="1Jmq5DldogG7wvRiKXgC-187" style="edgeStyle=orthogonalEdgeStyle;rounded=0;orthogonalLoop=1;jettySize=auto;html=1;exitX=0.5;exitY=1;exitDx=0;exitDy=0;entryX=0.5;entryY=0;entryDx=0;entryDy=0;strokeColor=#FF0000;" edge="1" parent="4" source="1Jmq5DldogG7wvRiKXgC-87" target="38">
          <mxGeometry relative="1" as="geometry" />
        </mxCell>
        <mxCell id="1Jmq5DldogG7wvRiKXgC-87" value="Encerrar&#xa;Processo" style="" vertex="1" parent="4">
          <mxGeometry x="92.75" y="433" width="104.5" height="50" as="geometry" />
        </mxCell>
        <mxCell id="1Jmq5DldogG7wvRiKXgC-188" style="edgeStyle=orthogonalEdgeStyle;rounded=0;orthogonalLoop=1;jettySize=auto;html=1;exitX=0.5;exitY=1;exitDx=0;exitDy=0;entryX=0.5;entryY=0;entryDx=0;entryDy=0;strokeColor=#FF0000;" edge="1" parent="4" source="1Jmq5DldogG7wvRiKXgC-183" target="1Jmq5DldogG7wvRiKXgC-87">
          <mxGeometry relative="1" as="geometry" />
        </mxCell>
        <mxCell id="1Jmq5DldogG7wvRiKXgC-183" value="Faz Reparação" style="" vertex="1" parent="4">
          <mxGeometry x="90" y="363" width="110" height="50" as="geometry" />
        </mxCell>
        <mxCell id="1Jmq5DldogG7wvRiKXgC-47" style="edgeStyle=orthogonalEdgeStyle;rounded=0;orthogonalLoop=1;jettySize=auto;html=1;exitX=0.5;exitY=0;exitDx=0;exitDy=0;entryX=0;entryY=0.5;entryDx=0;entryDy=0;strokeColor=#FF0000;" edge="1" parent="1" source="1Jmq5DldogG7wvRiKXgC-41" target="15">
          <mxGeometry relative="1" as="geometry">
            <mxPoint x="359.9655172413793" y="260" as="targetPoint" />
          </mxGeometry>
        </mxCell>
        <mxCell id="1Jmq5DldogG7wvRiKXgC-72" style="edgeStyle=orthogonalEdgeStyle;rounded=0;orthogonalLoop=1;jettySize=auto;html=1;exitX=0;exitY=0.5;exitDx=0;exitDy=0;entryX=0.987;entryY=0.611;entryDx=0;entryDy=0;entryPerimeter=0;strokeColor=#FF0000;" edge="1" parent="1" source="1Jmq5DldogG7wvRiKXgC-69" target="1Jmq5DldogG7wvRiKXgC-73">
          <mxGeometry relative="1" as="geometry">
            <mxPoint x="700" y="290" as="targetPoint" />
          </mxGeometry>
        </mxCell>
        <mxCell id="1Jmq5DldogG7wvRiKXgC-75" value="sim" style="text;html=1;align=center;verticalAlign=middle;resizable=0;points=[];autosize=1;strokeColor=none;fillColor=none;" vertex="1" parent="1">
          <mxGeometry x="781" y="278" width="40" height="30" as="geometry" />
        </mxCell>
        <mxCell id="1Jmq5DldogG7wvRiKXgC-76" style="edgeStyle=orthogonalEdgeStyle;rounded=0;orthogonalLoop=1;jettySize=auto;html=1;exitX=1;exitY=0.5;exitDx=0;exitDy=0;entryX=0;entryY=0.5;entryDx=0;entryDy=0;strokeColor=#FF0000;" edge="1" parent="1" source="21" target="1Jmq5DldogG7wvRiKXgC-59">
          <mxGeometry relative="1" as="geometry" />
        </mxCell>
        <mxCell id="1Jmq5DldogG7wvRiKXgC-120" value="sim" style="text;html=1;align=center;verticalAlign=middle;resizable=0;points=[];autosize=1;strokeColor=none;fillColor=none;" vertex="1" parent="1">
          <mxGeometry x="651" y="328" width="40" height="30" as="geometry" />
        </mxCell>
        <mxCell id="1Jmq5DldogG7wvRiKXgC-121" value="não" style="text;html=1;align=center;verticalAlign=middle;resizable=0;points=[];autosize=1;strokeColor=none;fillColor=none;" vertex="1" parent="1">
          <mxGeometry x="611" y="368" width="40" height="30" as="geometry" />
        </mxCell>
        <mxCell id="1Jmq5DldogG7wvRiKXgC-164" style="edgeStyle=orthogonalEdgeStyle;rounded=0;orthogonalLoop=1;jettySize=auto;html=1;exitX=0;exitY=0.5;exitDx=0;exitDy=0;entryX=1;entryY=0.5;entryDx=0;entryDy=0;strokeColor=#FF0000;" edge="1" parent="1" source="1Jmq5DldogG7wvRiKXgC-63" target="1Jmq5DldogG7wvRiKXgC-135">
          <mxGeometry relative="1" as="geometry">
            <mxPoint x="700" y="510" as="targetPoint" />
          </mxGeometry>
        </mxCell>
        <mxCell id="1Jmq5DldogG7wvRiKXgC-172" style="edgeStyle=orthogonalEdgeStyle;rounded=0;orthogonalLoop=1;jettySize=auto;html=1;exitX=1;exitY=0.5;exitDx=0;exitDy=0;entryX=0;entryY=0.5;entryDx=0;entryDy=0;" edge="1" parent="1" source="1Jmq5DldogG7wvRiKXgC-168" target="1Jmq5DldogG7wvRiKXgC-171">
          <mxGeometry relative="1" as="geometry" />
        </mxCell>
        <mxCell id="1Jmq5DldogG7wvRiKXgC-175" value="sim" style="text;html=1;align=center;verticalAlign=middle;resizable=0;points=[];autosize=1;strokeColor=none;fillColor=none;" vertex="1" parent="1">
          <mxGeometry x="391" y="608" width="40" height="30" as="geometry" />
        </mxCell>
        <mxCell id="1Jmq5DldogG7wvRiKXgC-186" style="edgeStyle=orthogonalEdgeStyle;rounded=0;orthogonalLoop=1;jettySize=auto;html=1;exitX=1;exitY=0.5;exitDx=0;exitDy=0;entryX=0;entryY=0.5;entryDx=0;entryDy=0;strokeColor=#FF0000;" edge="1" parent="1" source="1Jmq5DldogG7wvRiKXgC-180" target="1Jmq5DldogG7wvRiKXgC-183">
          <mxGeometry relative="1" as="geometry">
            <Array as="points">
              <mxPoint x="770" y="584" />
              <mxPoint x="770" y="515" />
            </Array>
          </mxGeometry>
        </mxCell>
        <mxCell id="1Jmq5DldogG7wvRiKXgC-189" value="sim" style="text;html=1;align=center;verticalAlign=middle;resizable=0;points=[];autosize=1;strokeColor=none;fillColor=none;" vertex="1" parent="1">
          <mxGeometry x="661" y="558" width="40" height="30" as="geometry" />
        </mxCell>
        <mxCell id="1Jmq5DldogG7wvRiKXgC-192" style="edgeStyle=orthogonalEdgeStyle;rounded=0;orthogonalLoop=1;jettySize=auto;html=1;exitX=0.5;exitY=1;exitDx=0;exitDy=0;entryX=0;entryY=0.75;entryDx=0;entryDy=0;strokeColor=#FF0000;" edge="1" parent="1" source="1Jmq5DldogG7wvRiKXgC-180" target="1Jmq5DldogG7wvRiKXgC-87">
          <mxGeometry relative="1" as="geometry" />
        </mxCell>
      </root>
    </mxGraphModel>
  </diagram>
</mxfile>
